<mxfile host="drawio-plugin" modified="2021-04-30T15:48:38.870Z" agent="5.0 (X11; Linux x86_64) AppleWebKit/537.36 (KHTML, like Gecko) Chrome/87.0.4280.141 Safari/537.36" etag="1cciTy87eXYGkhYTmZ_6" version="13.7.9" type="embed"><diagram id="C5RBs43oDa-KdzZeNtuy" name="Page-1"><mxGraphModel dx="1030" dy="402" grid="1" gridSize="10" guides="1" tooltips="1" connect="1" arrows="1" fold="1" page="1" pageScale="1" pageWidth="827" pageHeight="1169" math="0" shadow="0"><root><mxCell id="WIyWlLk6GJQsqaUBKTNV-0"/><mxCell id="WIyWlLk6GJQsqaUBKTNV-1" parent="WIyWlLk6GJQsqaUBKTNV-0"/><mxCell id="qY6dVdnBMb6mZ9kPGeWk-0" value="Pizza" style="swimlane;fontStyle=1;align=center;verticalAlign=top;childLayout=stackLayout;horizontal=1;startSize=26;horizontalStack=0;resizeParent=1;resizeParentMax=0;resizeLast=0;collapsible=1;marginBottom=0;" parent="WIyWlLk6GJQsqaUBKTNV-1" vertex="1"><mxGeometry x="20" y="50" width="160" height="130" as="geometry"/></mxCell><mxCell id="qY6dVdnBMb6mZ9kPGeWk-1" value="+ name: str&#10;+ cooking_time: int&#10;+ some_list: list" style="text;strokeColor=none;fillColor=none;align=left;verticalAlign=top;spacingLeft=4;spacingRight=4;overflow=hidden;rotatable=0;points=[[0,0.5],[1,0.5]];portConstraint=eastwest;" parent="qY6dVdnBMb6mZ9kPGeWk-0" vertex="1"><mxGeometry y="26" width="160" height="54" as="geometry"/></mxCell><mxCell id="qY6dVdnBMb6mZ9kPGeWk-2" value="" style="line;strokeWidth=1;fillColor=none;align=left;verticalAlign=middle;spacingTop=-1;spacingLeft=3;spacingRight=3;rotatable=0;labelPosition=right;points=[];portConstraint=eastwest;" parent="qY6dVdnBMb6mZ9kPGeWk-0" vertex="1"><mxGeometry y="80" width="160" height="8" as="geometry"/></mxCell><mxCell id="qY6dVdnBMb6mZ9kPGeWk-3" value="+ __str__(): str&#10;+ clone(): Pizza" style="text;strokeColor=none;fillColor=none;align=left;verticalAlign=top;spacingLeft=4;spacingRight=4;overflow=hidden;rotatable=0;points=[[0,0.5],[1,0.5]];portConstraint=eastwest;" parent="qY6dVdnBMb6mZ9kPGeWk-0" vertex="1"><mxGeometry y="88" width="160" height="42" as="geometry"/></mxCell><mxCell id="qY6dVdnBMb6mZ9kPGeWk-4" value="Client" style="html=1;" parent="WIyWlLk6GJQsqaUBKTNV-1" vertex="1"><mxGeometry x="330" y="50" width="110" height="50" as="geometry"/></mxCell><mxCell id="qY6dVdnBMb6mZ9kPGeWk-5" style="edgeStyle=orthogonalEdgeStyle;rounded=0;orthogonalLoop=1;jettySize=auto;html=1;exitX=0;exitY=0.5;exitDx=0;exitDy=0;endSize=11;startSize=11;endArrow=open;endFill=0;dashed=1;entryX=1;entryY=0.5;entryDx=0;entryDy=0;" parent="WIyWlLk6GJQsqaUBKTNV-1" source="qY6dVdnBMb6mZ9kPGeWk-4" target="qY6dVdnBMb6mZ9kPGeWk-3" edge="1"><mxGeometry relative="1" as="geometry"><mxPoint x="489.20000000000005" y="80.04866666666658" as="sourcePoint"/><mxPoint x="460" y="168" as="targetPoint"/></mxGeometry></mxCell><mxCell id="qY6dVdnBMb6mZ9kPGeWk-6" value="Invoke method clone()" style="edgeLabel;html=1;align=center;verticalAlign=middle;resizable=0;points=[];" parent="qY6dVdnBMb6mZ9kPGeWk-5" vertex="1" connectable="0"><mxGeometry x="0.2408" y="-2" relative="1" as="geometry"><mxPoint x="1" as="offset"/></mxGeometry></mxCell></root></mxGraphModel></diagram></mxfile>